<svg width="38" height="38" viewBox="0 0 38 38" fill="none" xmlns="http://www.w3.org/2000/svg">
<path d="M19 26.9167C19.4486 26.9167 19.8246 26.765 20.1281 26.4615C20.4316 26.1581 20.5833 25.782 20.5833 25.3334C20.5833 24.8848 20.4316 24.5088 20.1281 24.2053C19.8246 23.9018 19.4486 23.7501 19 23.7501C18.5514 23.7501 18.1753 23.9018 17.8719 24.2053C17.5684 24.5088 17.4167 24.8848 17.4167 25.3334C17.4167 25.782 17.5684 26.1581 17.8719 26.4615C18.1753 26.765 18.5514 26.9167 19 26.9167ZM17.4167 20.5834H20.5833V11.0834H17.4167V20.5834ZM19 34.8334C16.8097 34.8334 14.7514 34.4178 12.825 33.5865C10.8986 32.7553 9.22291 31.6272 7.79791 30.2022C6.37291 28.7772 5.24478 27.1015 4.41353 25.1751C3.58228 23.2487 3.16666 21.1904 3.16666 19.0001C3.16666 16.8098 3.58228 14.7515 4.41353 12.8251C5.24478 10.8987 6.37291 9.223 7.79791 7.798C9.22291 6.373 10.8986 5.24487 12.825 4.41362C14.7514 3.58237 16.8097 3.16675 19 3.16675C21.1903 3.16675 23.2486 3.58237 25.175 4.41362C27.1014 5.24487 28.7771 6.373 30.2021 7.798C31.6271 9.223 32.7552 10.8987 33.5864 12.8251C34.4177 14.7515 34.8333 16.8098 34.8333 19.0001C34.8333 21.1904 34.4177 23.2487 33.5864 25.1751C32.7552 27.1015 31.6271 28.7772 30.2021 30.2022C28.7771 31.6272 27.1014 32.7553 25.175 33.5865C23.2486 34.4178 21.1903 34.8334 19 34.8334Z" fill="#FF3B30"/>
</svg>
